<svg width="64" height="64" viewBox="0 0 64 64" fill="none" xmlns="http://www.w3.org/2000/svg">
<path d="M64 32C64 49.6731 49.6731 64 32 64C14.3269 64 0 49.6731 0 32C0 14.3269 14.3269 0 32 0C49.6731 0 64 14.3269 64 32Z" fill="url(#paint0_linear_187_8)"/>
<path d="M31.1863 8.20543C31.4363 8.07059 31.7159 8 32 8C32.2841 8 32.5637 8.07059 32.8137 8.20543L55.0999 20.2055C55.3721 20.3524 55.5994 20.5702 55.7579 20.8358C55.9163 21.1013 56 21.4048 56 21.7141C56 22.0234 55.9163 22.3269 55.7579 22.5924C55.5994 22.858 55.3721 23.0758 55.0999 23.2227L32.8137 35.2228C32.5637 35.3576 32.2841 35.4282 32 35.4282C31.7159 35.4282 31.4363 35.3576 31.1863 35.2228L8.90006 23.2227C8.62791 23.0758 8.40057 22.858 8.24211 22.5924C8.08366 22.3269 8 22.0234 8 21.7141C8 21.4048 8.08366 21.1013 8.24211 20.8358C8.40057 20.5702 8.62791 20.3524 8.90006 20.2055L31.1863 8.20543Z" fill="#DAED6F"/>
<path d="M12.0316 28.8044L29.5588 38.2422C30.3083 38.6459 31.1464 38.8572 31.9977 38.8572C32.8491 38.8572 33.6871 38.6459 34.4366 38.2422L51.9639 28.8021L55.0954 30.4912C55.3675 30.6381 55.5949 30.8559 55.7533 31.1215C55.9118 31.3871 55.9954 31.6906 55.9954 31.9998C55.9954 32.3091 55.9118 32.6126 55.7533 32.8782C55.5949 33.1438 55.3675 33.3615 55.0954 33.5084L32.8092 45.5085C32.5597 45.6425 32.2809 45.7127 31.9977 45.7127C31.7145 45.7127 31.4357 45.6425 31.1863 45.5085L8.90006 33.5084C8.62791 33.3615 8.40057 33.1438 8.24211 32.8782C8.08366 32.6126 8 32.3091 8 31.9998C8 31.6906 8.08366 31.3871 8.24211 31.1215C8.40057 30.8559 8.62791 30.6381 8.90006 30.4912L12.0316 28.8044Z" fill="#DAED6F"/>
<path d="M29.5588 48.5279L12.0316 39.0879L8.90006 40.777C8.62791 40.9239 8.40057 41.1417 8.24211 41.4073C8.08366 41.6728 8 41.9763 8 42.2856C8 42.5949 8.08366 42.8984 8.24211 43.1639C8.40057 43.4295 8.62791 43.6473 8.90006 43.7942L31.1863 55.7943C31.6914 56.0686 32.304 56.0686 32.8092 55.7943L55.0954 43.7942C55.3675 43.6473 55.5949 43.4295 55.7533 43.1639C55.9118 42.8984 55.9954 42.5949 55.9954 42.2856C55.9954 41.9763 55.9118 41.6728 55.7533 41.4073C55.5949 41.1417 55.3675 40.9239 55.0954 40.777L51.9639 39.0901L34.4366 48.5302C33.6869 48.9336 32.8488 49.1445 31.9974 49.1441C31.1461 49.1437 30.3081 48.932 29.5588 48.5279Z" fill="#DAED6F"/>
<defs>
<linearGradient id="paint0_linear_187_8" x1="64" y1="10.1053" x2="32" y2="41.2632" gradientUnits="userSpaceOnUse">
<stop offset="0.0311878" stop-color="#404040"/>
<stop offset="0.476" stop-color="#252525"/>
<stop offset="0.761"/>
</linearGradient>
</defs>
</svg>
